<svg width="17" height="16" viewBox="0 0 17 16" fill="none" xmlns="http://www.w3.org/2000/svg">
<g id="Phone" clip-path="url(#clip0_37_459)">
<path id="Vector" d="M4.71314 7.19333C5.67314 9.08 7.2198 10.62 9.10647 11.5867L10.5731 10.12C10.7531 9.94 11.0198 9.88 11.2531 9.96C11.9998 10.2067 12.8065 10.34 13.6331 10.34C13.9998 10.34 14.2998 10.64 14.2998 11.0067V13.3333C14.2998 13.7 13.9998 14 13.6331 14C7.37314 14 2.2998 8.92667 2.2998 2.66667C2.2998 2.3 2.5998 2 2.96647 2H5.2998C5.66647 2 5.96647 2.3 5.96647 2.66667C5.96647 3.5 6.0998 4.3 6.34647 5.04667C6.4198 5.28 6.36647 5.54 6.1798 5.72667L4.71314 7.19333Z" fill="black"/>
</g>
<defs>
<clipPath id="clip0_37_459">
<rect width="16" height="16" fill="white" transform="translate(0.299805)"/>
</clipPath>
</defs>
</svg>
